<svg width="960" height="960" viewBox="0 0 960 960" fill="none" xmlns="http://www.w3.org/2000/svg">
  <rect width="960" height="960" rx="40" fill="#0A0E14"/>
  <circle cx="732" cy="180" r="160" fill="url(#paint0_radial)"/>
  <path d="M164 694L472 522L788 654L482 818L164 694Z" fill="#0D1520" stroke="#7CBFFF" stroke-width="4"/>
  <path d="M472 522L472 818" stroke="#7CBFFF" stroke-width="4" stroke-dasharray="12 12"/>
  <path d="M236 676V485L470 350V522L236 676Z" fill="url(#paint1_linear)" stroke="#9ED2FF" stroke-width="4"/>
  <path d="M470 350L710 470V654L470 522V350Z" fill="url(#paint2_linear)" stroke="#9ED2FF" stroke-width="4"/>
  <path d="M318 624V456L390 414V583L318 624Z" fill="#0A0E14" stroke="#2EFFC8" stroke-width="4"/>
  <path d="M536 551V414L624 458V595L536 551Z" fill="#0A0E14" stroke="#2EFFC8" stroke-width="4"/>
  <path d="M626 599V458L692 491V632L626 599Z" fill="#0A0E14" stroke="#2EFFC8" stroke-width="4"/>
  <path d="M245 713L470 585L700 699" stroke="#C6E9FF" stroke-opacity="0.65" stroke-width="4"/>
  <g opacity="0.65">
    <path d="M120 198H320" stroke="#1E90FF" stroke-width="2" stroke-opacity="0.22"/>
    <path d="M120 230H252" stroke="#2EFFC8" stroke-width="2" stroke-opacity="0.22"/>
    <path d="M760 762H858" stroke="#1E90FF" stroke-width="2" stroke-opacity="0.22"/>
    <path d="M760 794H826" stroke="#2EFFC8" stroke-width="2" stroke-opacity="0.22"/>
  </g>
  <defs>
    <radialGradient id="paint0_radial" cx="0" cy="0" r="1" gradientUnits="userSpaceOnUse" gradientTransform="translate(732 180) rotate(90) scale(160)">
      <stop stop-color="#1E90FF" stop-opacity="0.26"/>
      <stop offset="1" stop-color="#1E90FF" stop-opacity="0"/>
    </radialGradient>
    <linearGradient id="paint1_linear" x1="353" y1="350" x2="353" y2="676" gradientUnits="userSpaceOnUse">
      <stop stop-color="#224B75"/>
      <stop offset="1" stop-color="#122639"/>
    </linearGradient>
    <linearGradient id="paint2_linear" x1="590" y1="350" x2="590" y2="654" gradientUnits="userSpaceOnUse">
      <stop stop-color="#1A4065"/>
      <stop offset="1" stop-color="#112030"/>
    </linearGradient>
  </defs>
</svg>
