<svg width="960" height="960" viewBox="0 0 960 960" fill="none" xmlns="http://www.w3.org/2000/svg">
  <rect width="960" height="960" rx="40" fill="#0A0E14"/>
  <g transform="translate(0 120)">
  <circle cx="760" cy="150" r="150" fill="url(#paint0_radial)"/>
  <g opacity="0.68">
    <path d="M132 118H830" stroke="#1E90FF" stroke-width="2" stroke-opacity="0.14"/>
    <path d="M132 602H830" stroke="#1E90FF" stroke-width="2" stroke-opacity="0.14"/>
  </g>
  <path d="M294 184H650L738 284V498L648 582H294L206 498V284L294 184Z" fill="url(#paint1_linear)" stroke="#8BCBFF" stroke-width="5"/>
  <path d="M316 220H626L700 298V480L626 546H316L244 480V298L316 220Z" fill="#0D141D" stroke="#D2EDFF" stroke-width="4"/>
  <rect x="328" y="268" width="176" height="58" rx="16" fill="#0A0E14" stroke="#2EFFC8" stroke-width="4"/>
  <rect x="532" y="268" width="102" height="58" rx="16" fill="#0A0E14" stroke="#7CBFFF" stroke-width="4"/>
  <rect x="328" y="362" width="306" height="22" rx="11" fill="#173247"/>
  <rect x="328" y="408" width="252" height="18" rx="9" fill="#102536"/>
  <circle cx="350" cy="504" r="18" fill="#0A0E14" stroke="#2EFFC8" stroke-width="4"/>
  <circle cx="610" cy="504" r="18" fill="#0A0E14" stroke="#2EFFC8" stroke-width="4"/>
  <path d="M708 284L786 246V462L708 498" stroke="#7CBFFF" stroke-width="4" stroke-linejoin="round"/>
  <path d="M244 284L172 246V462L244 498" stroke="#7CBFFF" stroke-width="4" stroke-linejoin="round"/>
  </g>
  <defs>
    <radialGradient id="paint0_radial" cx="0" cy="0" r="1" gradientUnits="userSpaceOnUse" gradientTransform="translate(760 150) rotate(90) scale(150)">
      <stop stop-color="#1E90FF" stop-opacity="0.24"/>
      <stop offset="1" stop-color="#1E90FF" stop-opacity="0"/>
    </radialGradient>
    <linearGradient id="paint1_linear" x1="472" y1="184" x2="472" y2="582" gradientUnits="userSpaceOnUse">
      <stop stop-color="#224A73"/>
      <stop offset="1" stop-color="#132434"/>
    </linearGradient>
  </defs>
</svg>
