<svg width="1200" height="1200" viewBox="0 0 1200 1200" fill="none" xmlns="http://www.w3.org/2000/svg">
  <rect width="1200" height="1200" rx="40" fill="#0A0E14"/>
  <g transform="translate(0 210)">
  <g opacity="0.7">
    <path d="M80 130H1120" stroke="#1E90FF" stroke-opacity="0.12" stroke-width="2"/>
    <path d="M80 650H1120" stroke="#1E90FF" stroke-opacity="0.12" stroke-width="2"/>
    <path d="M140 80V700" stroke="#2EFFC8" stroke-opacity="0.09" stroke-width="2"/>
    <path d="M1060 80V700" stroke="#2EFFC8" stroke-opacity="0.09" stroke-width="2"/>
  </g>
  <circle cx="968" cy="158" r="140" fill="url(#paint0_radial)"/>
  <g opacity="0.9">
    <path d="M370 437L470 317H770L875 437V504H792L748 569H496L452 504H370V437Z" fill="url(#paint1_linear)" stroke="#8FC7FF" stroke-width="4"/>
    <path d="M505 317L556 240H683L735 317" stroke="#BEE4FF" stroke-width="4"/>
    <path d="M418 502L488 502" stroke="#2EFFC8" stroke-width="6" stroke-linecap="round"/>
    <path d="M713 502L830 502" stroke="#2EFFC8" stroke-width="6" stroke-linecap="round"/>
    <path d="M536 396H706" stroke="#C8E6FF" stroke-width="5" stroke-linecap="round"/>
    <path d="M507 439H735" stroke="#C8E6FF" stroke-opacity="0.7" stroke-width="4" stroke-dasharray="10 10"/>
    <circle cx="481" cy="318" r="28" fill="#0A0E14" stroke="#7CC2FF" stroke-width="6"/>
    <circle cx="760" cy="318" r="28" fill="#0A0E14" stroke="#7CC2FF" stroke-width="6"/>
    <circle cx="451" cy="556" r="32" fill="#0A0E14" stroke="#2EFFC8" stroke-width="6"/>
    <circle cx="789" cy="556" r="32" fill="#0A0E14" stroke="#2EFFC8" stroke-width="6"/>
    <path d="M522 568H720" stroke="#7CC2FF" stroke-opacity="0.55" stroke-width="5"/>
  </g>
  <g opacity="0.78">
    <rect x="186" y="140" width="204" height="62" rx="18" fill="#0E1520" stroke="#1E90FF" stroke-opacity="0.35"/>
    <path d="M212 171H320" stroke="#9ED2FF" stroke-width="4" stroke-linecap="round"/>
    <path d="M212 188H283" stroke="#2EFFC8" stroke-width="4" stroke-linecap="round"/>
  </g>
  </g>
  <defs>
    <radialGradient id="paint0_radial" cx="0" cy="0" r="1" gradientUnits="userSpaceOnUse" gradientTransform="translate(968 158) rotate(90) scale(140)">
      <stop stop-color="#1E90FF" stop-opacity="0.28"/>
      <stop offset="1" stop-color="#1E90FF" stop-opacity="0"/>
    </radialGradient>
    <linearGradient id="paint1_linear" x1="622.5" y1="240" x2="622.5" y2="569" gradientUnits="userSpaceOnUse">
      <stop stop-color="#173C5F"/>
      <stop offset="0.45" stop-color="#214E79"/>
      <stop offset="1" stop-color="#102337"/>
    </linearGradient>
  </defs>
</svg>
