<svg width="1200" height="1200" viewBox="0 0 1200 1200" fill="none" xmlns="http://www.w3.org/2000/svg">
  <rect width="1200" height="1200" rx="40" fill="#0A0E14"/>
  <g transform="translate(0 240)">
  <circle cx="908" cy="166" r="150" fill="url(#paint0_radial)"/>
  <g opacity="0.72">
    <path d="M138 116H1064" stroke="#1E90FF" stroke-opacity="0.12" stroke-width="2"/>
    <path d="M138 604H1064" stroke="#1E90FF" stroke-opacity="0.12" stroke-width="2"/>
  </g>
  <g transform="translate(278 118)">
    <path d="M320 20L351 60L403 57L415 106L463 128L455 180L491 219L463 263L480 314L437 343L433 396L381 408L359 457L306 448L270 487L224 460L173 475L146 429L94 427L82 377L34 354L42 302L6 263L34 219L17 168L60 139L64 86L116 74L138 25L191 34L227 -5L273 22Z" fill="url(#paint1_linear)" stroke="#98D4FF" stroke-width="5"/>
    <circle cx="245" cy="240" r="118" fill="#0C1219" stroke="#D7EEFF" stroke-width="6"/>
    <circle cx="245" cy="240" r="42" fill="#0A0E14" stroke="#2EFFC8" stroke-width="6"/>
    <path d="M245 122V358" stroke="#7CC2FF" stroke-opacity="0.45" stroke-width="3" stroke-dasharray="10 10"/>
    <path d="M127 240H363" stroke="#7CC2FF" stroke-opacity="0.45" stroke-width="3" stroke-dasharray="10 10"/>
  </g>
  <g transform="translate(126 332) scale(0.68)">
    <path d="M320 20L351 60L403 57L415 106L463 128L455 180L491 219L463 263L480 314L437 343L433 396L381 408L359 457L306 448L270 487L224 460L173 475L146 429L94 427L82 377L34 354L42 302L6 263L34 219L17 168L60 139L64 86L116 74L138 25L191 34L227 -5L273 22Z" fill="url(#paint2_linear)" stroke="#86C8FF" stroke-width="5"/>
    <circle cx="245" cy="240" r="118" fill="#0C1219" stroke="#D7EEFF" stroke-width="6"/>
    <circle cx="245" cy="240" r="42" fill="#0A0E14" stroke="#2EFFC8" stroke-width="6"/>
  </g>
  </g>
  <defs>
    <radialGradient id="paint0_radial" cx="0" cy="0" r="1" gradientUnits="userSpaceOnUse" gradientTransform="translate(908 166) rotate(90) scale(150)">
      <stop stop-color="#1E90FF" stop-opacity="0.24"/>
      <stop offset="1" stop-color="#1E90FF" stop-opacity="0"/>
    </radialGradient>
    <linearGradient id="paint1_linear" x1="248.5" y1="-5" x2="248.5" y2="487" gradientUnits="userSpaceOnUse">
      <stop stop-color="#224F7B"/>
      <stop offset="1" stop-color="#132535"/>
    </linearGradient>
    <linearGradient id="paint2_linear" x1="248.5" y1="-5" x2="248.5" y2="487" gradientUnits="userSpaceOnUse">
      <stop stop-color="#183B5B"/>
      <stop offset="1" stop-color="#0F202F"/>
    </linearGradient>
  </defs>
</svg>
